<?xml version="1.0" standalone="no"?>
<!DOCTYPE svg PUBLIC "-//W3C//DTD SVG 20010904//EN"
 "http://www.w3.org/TR/2001/REC-SVG-20010904/DTD/svg10.dtd">
<svg version="1.0" xmlns="http://www.w3.org/2000/svg"
 width="254.000000pt" height="254.000000pt" viewBox="0 0 254.000000 254.000000"
 preserveAspectRatio="xMidYMid meet">
<metadata>
Created by potrace 1.11, written by Peter Selinger 2001-2013
</metadata>
<g transform="translate(0.000000,254.000000) scale(0.100000,-0.100000)"
fill="#000000" stroke="none">
<path d="M2210 2482 c0 -4 -21 -8 -47 -9 -25 -2 -51 -7 -56 -12 -5 -5 -15 -7
-22 -4 -8 2 -23 -1 -35 -7 -13 -7 -20 -8 -16 -2 4 7 -5 6 -23 -1 -17 -6 -27
-16 -24 -21 4 -7 1 -7 -6 0 -9 8 -22 6 -48 -7 -20 -10 -39 -16 -44 -14 -4 3
-24 -6 -45 -20 -20 -14 -43 -25 -50 -25 -8 0 -14 -5 -14 -12 0 -6 -3 -8 -6 -5
-4 4 -19 -2 -33 -11 -14 -10 -48 -29 -74 -43 -26 -13 -57 -32 -67 -42 -11 -9
-23 -17 -27 -17 -5 0 -16 -7 -26 -15 -9 -8 -22 -15 -27 -15 -6 0 -10 -4 -10
-10 0 -5 -4 -10 -10 -10 -5 0 -19 -8 -29 -17 -33 -30 -50 -43 -56 -43 -4 0
-20 -14 -37 -30 -16 -17 -34 -28 -39 -24 -5 3 -9 -2 -9 -10 0 -9 -5 -16 -11
-16 -5 0 -7 -5 -3 -12 4 -6 3 -8 -3 -5 -5 3 -35 -18 -66 -48 -31 -30 -54 -55
-50 -55 3 0 -6 -10 -20 -23 -15 -12 -27 -26 -27 -29 0 -12 -75 -86 -90 -90 -7
-2 -26 -16 -42 -31 -15 -15 -28 -24 -28 -20 0 4 -6 1 -13 -7 -20 -25 -84 -69
-91 -63 -3 4 -6 1 -6 -5 0 -7 -7 -12 -16 -12 -8 0 -13 -4 -10 -9 4 -5 -5 -8
-19 -6 -14 1 -25 -1 -25 -4 0 -15 -91 -29 -177 -28 -51 0 -93 3 -93 6 0 3 -21
7 -46 8 -26 2 -44 0 -41 -3 3 -3 -6 -17 -20 -30 -14 -13 -22 -24 -17 -24 5 -1
-2 -7 -16 -15 -14 -8 -22 -14 -19 -15 4 0 -12 -20 -35 -44 -60 -63 -81 -90
-89 -109 -3 -9 -11 -17 -16 -17 -5 0 -13 -9 -16 -20 -4 -11 -11 -18 -16 -15
-5 4 -9 -1 -9 -9 0 -9 -5 -16 -11 -16 -5 0 -7 -4 -4 -10 3 -5 1 -10 -4 -10 -6
0 -11 -7 -11 -15 0 -8 -4 -15 -9 -15 -5 0 -18 -19 -30 -42 -12 -24 -21 -39
-21 -34 0 6 -12 -15 -27 -45 -15 -29 -30 -56 -34 -59 -4 -3 -9 -12 -11 -20 -2
-8 -8 -20 -14 -27 -20 -21 -11 -56 13 -58 12 -1 20 1 18 5 -2 4 10 7 28 8 61
1 147 11 157 17 5 3 10 1 10 -5 0 -6 11 -8 24 -6 14 2 27 -1 30 -7 2 -7 5 -7
5 -2 1 6 38 9 96 7 64 -2 95 1 95 8 0 6 4 9 8 6 4 -2 9 5 9 17 1 12 7 23 12
25 6 2 18 18 26 35 9 18 27 46 41 62 15 17 23 23 18 15 -6 -12 -5 -13 7 -4 19
15 51 26 45 15 -3 -5 19 -8 49 -7 30 1 55 -2 55 -7 0 -4 4 -6 9 -3 12 8 9 -13
-5 -37 -10 -18 -12 -18 -27 -2 -11 11 -17 12 -17 4 0 -7 -3 -9 -7 -6 -3 4 -23
-11 -45 -32 -21 -22 -38 -36 -38 -33 0 4 -5 0 -10 -9 -6 -10 -6 -28 0 -48 7
-26 6 -33 -7 -38 -8 -3 -26 -16 -40 -29 -13 -12 -30 -21 -37 -18 -7 3 -24 -6
-37 -20 -13 -14 -30 -26 -36 -26 -7 0 -13 -5 -13 -11 0 -5 -5 -7 -10 -4 -6 3
-10 1 -10 -4 0 -6 -5 -11 -11 -11 -18 0 -40 -29 -43 -57 -1 -16 -8 -27 -14
-25 -7 1 -12 -3 -12 -10 0 -6 -3 -8 -7 -5 -7 8 -43 -47 -43 -67 0 -17 -35 -57
-44 -49 -3 3 -6 1 -6 -5 0 -6 -7 -17 -15 -26 -8 -8 -17 -39 -19 -68 -4 -46
-12 -62 -31 -58 -3 0 -13 -7 -22 -16 -20 -19 -27 -51 -16 -74 9 -19 11 -70 2
-70 -12 0 -26 -46 -24 -78 2 -17 -1 -32 -5 -32 -4 0 -8 -6 -7 -13 1 -35 -4
-58 -12 -52 -6 3 -9 -4 -8 -15 2 -25 3 -25 29 0 12 10 26 17 31 13 6 -3 7 -1
3 5 -5 8 0 12 13 12 12 0 21 6 21 13 0 8 4 7 10 -3 5 -8 10 -10 10 -4 0 8 11
9 35 4 23 -5 35 -4 35 3 0 8 3 8 11 0 12 -12 59 -5 59 9 0 5 5 6 10 3 6 -3 10
1 10 9 0 9 6 16 14 16 8 0 16 7 20 15 3 8 17 15 31 15 14 0 25 5 25 10 0 6 3
10 8 9 18 -3 51 14 45 24 -4 6 -1 7 8 2 19 -12 49 -14 49 -3 0 5 4 7 9 3 5 -3
12 -1 16 5 3 5 13 10 22 10 24 0 83 49 83 69 0 18 33 55 41 46 6 -6 69 51 69
62 0 5 13 23 29 41 17 17 28 32 25 32 -3 0 5 11 18 24 32 34 58 69 58 78 0 4
3 7 8 6 21 -4 92 51 92 72 0 6 7 10 15 10 8 0 15 5 15 10 0 13 37 50 51 50 5
0 7 4 4 10 -3 5 0 7 7 5 8 -3 14 -25 16 -57 2 -44 -1 -54 -26 -75 -44 -38 -51
-43 -62 -43 -5 0 -10 -5 -10 -11 0 -5 -4 -7 -10 -4 -5 3 -10 1 -10 -4 0 -6 -5
-11 -12 -11 -6 0 -20 -7 -29 -16 -15 -13 -16 -21 -8 -36 8 -15 8 -19 0 -14 -6
4 -11 3 -11 -3 0 -5 5 -13 10 -16 7 -4 6 -13 -1 -27 -8 -15 -8 -19 0 -14 6 4
11 2 11 -3 0 -6 -6 -11 -12 -11 -8 0 -9 -3 -3 -8 10 -7 12 -27 14 -122 2 -94
1 -101 -7 -96 -5 3 -9 -1 -9 -9 0 -8 5 -12 10 -8 5 3 4 -4 -2 -15 -6 -12 -9
-31 -7 -44 3 -13 5 -26 5 -30 1 -12 41 -9 41 3 0 5 4 8 9 4 6 -3 14 2 19 11 5
9 11 15 13 14 10 -3 69 27 62 33 -3 4 1 7 10 7 8 0 22 7 30 15 8 8 21 16 28
17 7 2 21 12 31 23 9 11 17 16 18 12 0 -4 10 1 22 12 11 11 26 18 31 14 6 -3
7 -1 3 5 -4 6 4 16 16 23 12 7 28 17 34 23 6 6 22 20 37 30 14 11 23 24 20 29
-3 6 -1 7 6 3 6 -4 14 0 17 8 3 9 9 14 13 12 4 -3 20 11 36 29 15 19 32 32 38
28 6 -3 8 -2 5 3 -3 5 0 15 8 22 8 7 14 10 14 6 0 -4 9 1 21 12 18 16 20 26
14 79 -11 99 -12 124 -3 119 4 -3 8 0 8 5 0 6 -5 11 -11 11 -7 0 -8 7 -4 18 4
9 9 33 12 52 2 19 9 38 16 42 9 6 8 8 -3 8 -10 0 -11 3 -3 8 6 4 15 19 18 35
4 15 11 24 16 21 9 -5 11 0 13 29 1 6 14 24 31 40 16 15 25 27 20 27 -6 0 5
10 23 21 17 12 32 25 32 30 0 5 7 9 15 9 8 0 30 16 50 36 20 19 44 37 55 39
20 4 116 95 112 108 -1 4 2 7 7 7 5 0 26 16 47 35 21 19 35 35 32 35 -4 0 10
17 30 38 20 20 40 36 45 34 5 -1 6 2 3 7 -4 5 7 24 23 40 17 17 28 31 25 31
-3 0 11 20 30 44 20 23 36 46 36 49 0 4 7 15 15 24 8 10 15 22 14 26 0 5 9 17
21 27 12 10 21 21 21 24 -1 13 33 76 42 76 5 0 6 7 3 16 -3 8 -2 12 4 9 9 -5
12 5 9 33 0 4 10 9 22 12 12 3 23 13 25 23 1 9 -1 15 -5 12 -4 -2 -8 2 -8 10
0 8 4 12 7 10 7 -4 24 51 21 68 0 4 4 7 10 7 6 0 9 9 6 20 -3 11 -1 20 5 20 5
0 6 5 3 10 -3 6 -2 10 4 10 5 0 10 8 10 18 1 36 5 52 11 52 3 0 5 16 4 35 -2
20 0 34 5 31 4 -3 7 11 6 30 -1 18 3 34 8 34 6 0 7 3 4 7 -4 3 -1 13 6 21 9
13 9 14 0 8 -7 -4 -13 -3 -13 3 0 5 5 13 10 16 7 5 8 11 1 19 -6 7 -6 17 -1
26 5 8 5 21 0 31 -5 9 -7 26 -5 38 2 11 0 21 -4 21 -5 0 -12 11 -15 24 -7 30
-55 65 -90 68 -14 1 -26 7 -26 13 0 5 -5 3 -10 -5 -6 -10 -10 -11 -10 -2 0 6
-5 12 -11 12 -5 0 -7 -5 -3 -12 5 -7 3 -8 -7 -2 -20 12 -63 12 -71 -1 -5 -6
-8 -5 -8 3 0 10 -5 10 -20 2 -14 -7 -20 -7 -20 0 0 5 -4 10 -10 10 -5 0 -10
-3 -10 -8z"/>
<path d="M200 641 c0 -14 -2 -14 -10 -1 -7 11 -9 10 -7 -8 2 -32 33 -48 52
-28 17 16 21 51 5 41 -5 -3 -10 -2 -10 3 0 5 -7 9 -15 9 -8 0 -15 -7 -15 -16z"/>
<path d="M173 520 c-1 -11 4 -20 13 -20 16 0 16 2 8 24 -8 22 -19 20 -21 -4z"/>
<path d="M535 200 c3 -5 1 -10 -5 -10 -21 0 -5 -35 16 -36 23 -1 31 35 11 48
-17 11 -29 10 -22 -2z"/>
</g>
</svg>
